<svg width="1042" height="1079" viewBox="0 0 1042 1079" fill="none" xmlns="http://www.w3.org/2000/svg">
<path d="M521.5 1079C796.814 1079 1020 855.814 1020 580.5C1020 305.186 796.814 82 521.5 82C246.186 82 23 305.186 23 580.5C23 855.814 246.186 1079 521.5 1079Z" fill="white"/>
<path d="M521 1014C808.74 1014 1042 982.212 1042 943C1042 903.788 808.74 872 521 872C233.26 872 0 903.788 0 943C0 982.212 233.26 1014 521 1014Z" fill="#444B53"/>
<path d="M414.617 763.589L400.106 856.376C400.106 856.376 328.67 894.385 378.899 895.503C429.127 896.621 665.76 895.503 665.76 895.503C665.76 895.503 711.524 895.503 638.971 855.258L624.461 758L414.617 763.589Z" fill="#2E3741"/>
<path d="M956.81 119H79.1904C60.8598 119 46 133.847 46 152.162V742.838C46 761.153 60.8598 776 79.1904 776H956.81C975.14 776 990 761.153 990 742.838V152.162C990 133.847 975.14 119 956.81 119Z" fill="#2E3741"/>
<path d="M959 154H78V647H959V154Z" fill="white"/>
<path d="M990 686V743.114C990.001 747.433 989.142 751.709 987.475 755.7C985.807 759.69 983.362 763.315 980.28 766.369C977.198 769.423 973.539 771.845 969.512 773.498C965.485 775.15 961.168 776.001 956.81 776H79.1906C74.8318 776.001 70.5156 775.15 66.4885 773.498C62.4614 771.845 58.8022 769.423 55.72 766.369C52.6379 763.315 50.1932 759.69 48.5254 755.7C46.8576 751.709 45.9995 747.433 46 743.114V686H990Z" fill="#2E3741"/>
<path d="M518 753C529.598 753 539 743.598 539 732C539 720.402 529.598 711 518 711C506.402 711 497 720.402 497 732C497 743.598 506.402 753 518 753Z" fill="#F2F2F2"/>
<rect x="170.245" y="120.876" width="413.283" height="479.455" rx="15" transform="rotate(-16.7269 170.245 120.876)" fill="white" stroke="#2E3741" stroke-width="2"/>
<path d="M575 143.206H404.712C400.831 143.21 397.111 144.754 394.367 147.498C391.623 150.241 390.079 153.961 390.075 157.842V536.273L388.123 536.869L346.349 549.66C344.369 550.264 342.23 550.057 340.403 549.086C338.575 548.115 337.208 546.458 336.6 544.479L212.341 138.63C211.736 136.65 211.942 134.511 212.914 132.684C213.885 130.856 215.543 129.488 217.522 128.882L281.897 109.173L468.52 52.0543L532.894 32.3448C533.874 32.0433 534.903 31.938 535.924 32.0348C536.944 32.1316 537.935 32.4286 538.841 32.909C539.746 33.3893 540.548 34.0434 541.2 34.834C541.853 35.6245 542.343 36.536 542.642 37.5161L574.405 141.254L575 143.206Z" fill="#F2F2F2"/>
<path d="M293.376 129C291.494 128.999 289.661 128.396 288.148 127.279C286.634 126.163 285.519 124.592 284.966 122.797L272.385 81.8091C272.047 80.7081 271.93 79.5515 272.04 78.4052C272.15 77.259 272.486 76.1456 273.027 75.1287C273.569 74.1118 274.306 73.2113 275.197 72.4786C276.087 71.7459 277.114 71.1953 278.217 70.8584L450.058 18.3821C452.287 17.7035 454.695 17.9349 456.754 19.0255C458.812 20.1161 460.352 21.9767 461.037 24.199L473.617 65.1875C474.297 67.4111 474.065 69.8129 472.972 71.8659C471.878 73.919 470.013 75.4556 467.786 76.1387L295.945 128.615C295.112 128.87 294.247 129 293.376 129V129Z" fill="#5AAFFF"/>
<path d="M359 47.9999C370.046 47.9999 379 39.2695 379 28.4999C379 17.7304 370.046 8.99991 359 8.99991C347.954 8.99991 339 17.7304 339 28.4999C339 39.2695 347.954 47.9999 359 47.9999Z" fill="#5AAFFF"/>
<rect x="389" y="142" width="416" height="478" rx="15" fill="white" stroke="#2E3741" stroke-width="2"/>
<path d="M359 40.9999C365.627 40.9999 371 35.4035 371 28.4999C371 21.5964 365.627 15.9999 359 15.9999C352.373 15.9999 347 21.5964 347 28.4999C347 35.4035 352.373 40.9999 359 40.9999Z" fill="white"/>
<path d="M761.692 572H431.308C429.106 571.997 426.994 571.122 425.436 569.567C423.879 568.011 423.003 565.902 423 563.701V168.299C423.002 166.098 423.879 163.989 425.436 162.433C426.994 160.877 429.106 160.002 431.308 160H761.692C763.894 160.002 766.006 160.878 767.564 162.433C769.121 163.989 769.997 166.098 770 168.299V563.701C769.997 565.901 769.121 568.011 767.564 569.566C766.006 571.122 763.894 571.997 761.692 572V572Z" fill="#E6E6E6"/>
<path d="M686.223 184H506.777C504.45 183.997 502.219 183.063 500.574 181.403C498.928 179.743 498.003 177.493 498 175.145V131.855C498.003 129.507 498.928 127.256 500.574 125.596C502.219 123.936 504.45 123.003 506.777 123H686.223C688.55 123.003 690.781 123.936 692.426 125.596C694.072 127.256 694.997 129.507 695 131.855V175.145C694.997 177.493 694.072 179.743 692.426 181.403C690.781 183.063 688.55 183.997 686.223 184V184Z" fill="#5AAFFF"/>
<path d="M596.5 126C607.27 126 616 117.269 616 106.5C616 95.7303 607.27 86.9999 596.5 86.9999C585.73 86.9999 577 95.7303 577 106.5C577 117.269 585.73 126 596.5 126Z" fill="#5AAFFF"/>
<path d="M597 119C603.627 119 609 113.627 609 107C609 100.372 603.627 94.9999 597 94.9999C590.373 94.9999 585 100.372 585 107C585 113.627 590.373 119 597 119Z" fill="white"/>
</svg>
