<svg width="1120" height="997" viewBox="0 0 1120 997" fill="none" xmlns="http://www.w3.org/2000/svg">
<path d="M564.5 997C839.814 997 1063 773.814 1063 498.5C1063 223.186 839.814 0 564.5 0C289.186 0 66 223.186 66 498.5C66 773.814 289.186 997 564.5 997Z" fill="white"/>
<path d="M0 171.142C0 248.64 48.6181 311.351 108.701 311.351Z" fill="#412E2E"/>
<path d="M108.701 311.351C108.701 232.982 162.956 169.567 230.004 169.567Z" fill="#F57E2C"/>
<path d="M39.3843 178.168C39.3843 251.782 70.3872 311.351 108.701 311.351Z" fill="#F57E2C"/>
<path d="M108.701 311.351C108.701 211.213 171.411 130.183 248.909 130.183Z" fill="#412E2E"/>
<path d="M85.8329 312.339C85.8329 312.339 101.248 311.864 105.894 308.556C110.54 305.248 129.607 301.298 130.76 306.603C131.912 311.909 153.927 332.991 136.522 333.132C119.118 333.272 96.0831 330.421 91.4462 327.596C86.8093 324.772 85.8329 312.339 85.8329 312.339Z" fill="#A8A8A8"/>
<path opacity="0.2" d="M136.833 331.285C119.429 331.425 96.3938 328.574 91.7568 325.749C88.2256 323.598 86.8184 315.88 86.3476 312.319C86.0215 312.333 85.8329 312.339 85.8329 312.339C85.8329 312.339 86.8093 324.772 91.4463 327.596C96.0832 330.421 119.118 333.272 136.523 333.132C141.546 333.091 143.282 331.304 143.186 328.656C142.488 330.256 140.572 331.255 136.833 331.285Z" fill="black"/>
<path d="M198.609 569.94C301.886 569.94 385.609 558.55 385.609 544.5C385.609 530.45 301.886 519.06 198.609 519.06C95.3319 519.06 11.6091 530.45 11.6091 544.5C11.6091 558.55 95.3319 569.94 198.609 569.94Z" fill="#534444"/>
<path opacity="0.1" d="M198.609 565.859C285.318 565.859 355.609 556.296 355.609 544.5C355.609 532.704 285.318 523.141 198.609 523.141C111.9 523.141 41.6091 532.704 41.6091 544.5C41.6091 556.296 111.9 565.859 198.609 565.859Z" fill="black"/>
<path d="M836.609 819C992.906 819 1119.61 801.763 1119.61 780.5C1119.61 759.237 992.906 742 836.609 742C680.313 742 553.609 759.237 553.609 780.5C553.609 801.763 680.313 819 836.609 819Z" fill="#534444"/>
<path d="M462.609 746C552.609 769 725.609 716 744.609 656" stroke="#412E2E" stroke-width="6" stroke-miterlimit="10"/>
<path d="M309.609 379C309.609 379 439.609 343 447.609 459C455.609 575 340.609 608 430.609 631" stroke="#412E2E" stroke-width="6" stroke-miterlimit="10"/>
<path d="M778.705 683.24L770.827 733.535C770.827 733.535 732.045 754.138 759.314 754.744C786.582 755.35 915.047 754.744 915.047 754.744C915.047 754.744 939.892 754.744 900.504 732.929L892.626 680.21L778.705 683.24Z" fill="#412E2E"/>
<path opacity="0.1" d="M753.828 754.198C760.021 748.688 770.827 742.946 770.827 742.946L778.705 692.651L892.626 692.758L900.504 742.34C909.689 747.427 915.379 751.327 918.707 754.318C923.766 753.164 929.295 748.875 900.504 732.929L892.626 680.21L778.705 683.24L770.827 733.535C770.827 733.535 738.239 750.85 753.828 754.198Z" fill="black"/>
<path d="M1073.64 332.689H596.479C586.512 332.689 578.433 340.768 578.433 350.734V672.163C578.433 682.129 586.512 690.208 596.479 690.208H1073.64C1083.61 690.208 1091.69 682.129 1091.69 672.163V350.734C1091.69 340.768 1083.61 332.689 1073.64 332.689Z" fill="#412E2E"/>
<path d="M1074.42 351.777H595.703V619.613H1074.42V351.777Z" fill="white"/>
<path d="M835.06 346.323C836.733 346.323 838.089 344.966 838.089 343.293C838.089 341.62 836.733 340.263 835.06 340.263C833.386 340.263 832.03 341.62 832.03 343.293C832.03 344.966 833.386 346.323 835.06 346.323Z" fill="#F2F2F2"/>
<path d="M1091.69 640.822V672.163C1091.69 674.533 1091.22 676.879 1090.31 679.069C1089.41 681.258 1088.08 683.248 1086.4 684.924C1084.73 686.599 1082.74 687.929 1080.55 688.835C1078.36 689.742 1076.01 690.209 1073.64 690.208H596.479C594.109 690.209 591.762 689.742 589.573 688.835C587.383 687.929 585.393 686.599 583.718 684.924C582.042 683.248 580.713 681.258 579.806 679.069C578.899 676.879 578.433 674.533 578.433 672.163V640.822H1091.69Z" fill="#412E2E"/>
<path d="M835.06 677.18C841.418 677.18 846.573 672.026 846.573 665.667C846.573 659.308 841.418 654.154 835.06 654.154C828.701 654.154 823.546 659.308 823.546 665.667C823.546 672.026 828.701 677.18 835.06 677.18Z" fill="#F2F2F2"/>
<path d="M316.609 279H108.609V521H316.609V279Z" fill="#412E2E"/>
<path d="M337.609 255H87.6091V341H337.609V255Z" fill="#534444"/>
<path d="M337.609 357H87.6091V443H337.609V357Z" fill="#534444"/>
<path d="M337.609 459H87.6091V545H337.609V459Z" fill="#534444"/>
<path opacity="0.4" d="M287.609 270H271.609V286H287.609V270Z" fill="#F57E2C"/>
<path opacity="0.8" d="M310.609 270H294.609V286H310.609V270Z" fill="#F57E2C"/>
<path d="M333.609 270H317.609V286H333.609V270Z" fill="#F57E2C"/>
<path opacity="0.4" d="M287.609 371H271.609V387H287.609V371Z" fill="#F57E2C"/>
<path opacity="0.8" d="M310.609 371H294.609V387H310.609V371Z" fill="#F57E2C"/>
<path d="M333.609 371H317.609V387H333.609V371Z" fill="#F57E2C"/>
<path opacity="0.4" d="M287.609 472H271.609V488H287.609V472Z" fill="#F57E2C"/>
<path opacity="0.8" d="M310.609 472H294.609V488H310.609V472Z" fill="#F57E2C"/>
<path d="M333.609 472H317.609V488H333.609V472Z" fill="#F57E2C"/>
<path d="M1022.14 615L1008 570.255C1008 570.255 1023.56 586.564 1023.56 599.945L1020.76 569C1020.76 569 1028.74 580.291 1027.94 597.436C1027.15 614.582 1022.14 615 1022.14 615Z" fill="#E6E6E6"/>
<path d="M704.143 574L690 531.2C690 531.2 705.556 546.8 705.556 559.6L702.764 530C702.764 530 710.742 540.8 709.944 557.2C709.146 573.6 704.143 574 704.143 574Z" fill="#E6E6E6"/>
<path d="M930 594.757C930.025 623.393 873.183 614.584 803.595 614.644C734.007 614.704 678.025 623.61 678 594.974C677.975 566.338 734.796 560.06 804.384 560C873.972 559.94 929.975 566.12 930 594.757Z" fill="#E6E6E6"/>
<path d="M787 586C809.644 586 828 567.42 828 544.5C828 521.58 809.644 503 787 503C764.356 503 746 521.58 746 544.5C746 567.42 764.356 586 787 586Z" fill="#F57E2C"/>
<path d="M759.354 500C753.606 500 747.982 498.344 743.162 495.231C738.341 492.118 734.531 487.683 732.193 482.461L666.39 335.075C664.21 330.193 663.057 324.919 663.002 319.577C662.947 314.236 663.991 308.939 666.07 304.014C668.148 299.088 671.218 294.637 675.09 290.935C678.962 287.233 683.554 284.357 688.584 282.485C693.614 280.613 698.976 279.783 704.341 280.048C709.705 280.313 714.958 281.666 719.778 284.024C724.597 286.382 728.881 289.696 732.365 293.761C735.849 297.826 738.461 302.557 740.039 307.663L787.689 461.807C789.053 466.219 789.358 470.887 788.579 475.438C787.8 479.988 785.958 484.294 783.203 488.008C780.447 491.722 776.854 494.742 772.712 496.825C768.57 498.908 763.995 499.995 759.354 500H759.354Z" fill="#F57E2C"/>
</svg>
