<svg id="Layer_1" data-name="Layer 1" xmlns="http://www.w3.org/2000/svg" viewBox="0 0 192.61 74.07"><defs><style>.cls-1{fill:#69c9ca;}.cls-2{fill:#f3777a;}.cls-3{fill:#2d867e;}.cls-4{fill:#468ac9;}.cls-5{fill:#f57e2c;}.cls-6{fill:#478bc9;}</style></defs><title>logo-seje</title><path class="cls-1" d="M-99.43-81a3.51,3.51,0,0,1-.76-2.43v-0.75h1.94v0.89A1,1,0,0,0-97.19-82a1,1,0,0,0,.79-0.31,1.49,1.49,0,0,0,.27-1,2.76,2.76,0,0,0-.37-1.44,6.87,6.87,0,0,0-1.38-1.5,8.24,8.24,0,0,1-1.77-2,4.11,4.11,0,0,1-.5-2,3.4,3.4,0,0,1,.78-2.39,2.94,2.94,0,0,1,2.27-.85,2.83,2.83,0,0,1,2.23.85,3.54,3.54,0,0,1,.75,2.43v0.54h-1.94v-0.67a1.5,1.5,0,0,0-.26-1,1,1,0,0,0-.76-0.31,1,1,0,0,0-1,1.25,2.46,2.46,0,0,0,.38,1.32,7.29,7.29,0,0,0,1.39,1.49,7.67,7.67,0,0,1,1.77,2,4.51,4.51,0,0,1,.48,2.14A3.5,3.5,0,0,1-94.87-81a3,3,0,0,1-2.3.86A2.88,2.88,0,0,1-99.43-81Z" transform="translate(100.19 154.24)"/><path class="cls-2" d="M-50.65-93.38h5.59v1.86H-48.6v3.44h2.81v1.86H-48.6v4h3.54v1.86h-5.59v-13Z" transform="translate(100.19 154.24)"/><path class="cls-3" d="M-8-87.8h4.1v1.86H-8V-87.8Z" transform="translate(100.19 154.24)"/><path class="cls-4" d="M36.15-80.35v-1.86a2.76,2.76,0,0,0,.67.08,1.22,1.22,0,0,0,.91-0.31,1.31,1.31,0,0,0,.3-0.94v-10h2v9.94a3.37,3.37,0,0,1-.74,2.38,2.94,2.94,0,0,1-2.24.78A5.16,5.16,0,0,1,36.15-80.35Z" transform="translate(100.19 154.24)"/><path class="cls-5" d="M86.83-93.38h5.59v1.86H88.88v3.44h2.81v1.86H88.88v4h3.54v1.86H86.83v-13Z" transform="translate(100.19 154.24)"/><rect class="cls-5" x="41.47" y="38.75" width="4" height="17.25"/><line class="cls-1" x1="1.04" x2="1.04" y2="45.75"/><rect class="cls-1" x="0.04" width="2" height="45.75"/><rect class="cls-2" x="9.96" width="4" height="45.75"/><rect class="cls-6" x="19.38" width="7" height="56"/><rect class="cls-3" x="88" width="2" height="45.75"/><rect class="cls-5" x="97.92" width="4" height="45.75"/><line class="cls-1" x1="110.84" x2="110.84" y2="56"/><rect class="cls-1" x="107.34" width="7" height="56"/><rect class="cls-3" x="32.8" width="2" height="56"/><line class="cls-1" x1="55.64" x2="55.64" y2="56"/><rect class="cls-1" x="52.15" width="7" height="56"/><rect class="cls-2" x="65.57" width="2" height="56"/><rect class="cls-6" x="73.99" width="7" height="56"/><path class="cls-2" d="M68.25-115.74a1.21,1.21,0,0,0-2,.89v7.34c0,1.66.08,6,.13,8.09a1.2,1.2,0,0,1-1.21,1.21s-24.55-.25-25.5-0.93q-1.85-1.33-1.85-4.87v-37.29q0-6.8-5.76-6.8-7.47,0-7.47,7.68v41a1.2,1.2,0,0,1-1.21,1.19h0a1.2,1.2,0,0,1-1.21-1.19v-41a12.35,12.35,0,0,1,4.4-10.06q4.12-3.47,10.72-3.47a8.53,8.53,0,0,1,7.49,4.14,15,15,0,0,1,2.38,8.52v35.89q0,3.29,1.74,4.7c0.69,0.56,5.19.86,10.56,0.86,4.88,0,4.24-5.74,4.24-8.36v-31.54a13.61,13.61,0,0,1,3.74-9.62,13.78,13.78,0,0,1,9.39-4.43q3.9-.28,9.69-0.28,3,0,4.7.14A1.19,1.19,0,0,1,92-152q-6.82,8.09-22.28,26.53a1.18,1.18,0,0,0,.24,1.74q4.71,3.26,13,12.75,5.43,6.23,8.92,10.82a1.19,1.19,0,0,1-1,1.9H84.75a1.19,1.19,0,0,1-.94-0.45q-3.77-4.74-8.55-10A94,94,0,0,0,68.25-115.74Zm-2-11.51a1.21,1.21,0,0,0,2.14.76q2.92-3.55,8.07-10,5.35-6.77,8.83-10.63a1.19,1.19,0,0,0-.83-2q-3-.21-4.86-0.21-8.32,0-11.12,3.64-2.23,2.9-2.23,10.85v7.61Z" transform="translate(100.19 154.24)"/></svg>